<svg width="303" height="303" viewBox="0 0 303 303" fill="none" xmlns="http://www.w3.org/2000/svg">
<path d="M151.5 208.312C156.523 208.312 161.339 210.308 164.891 213.859C168.442 217.411 170.437 222.227 170.438 227.25C170.437 232.273 168.442 237.089 164.891 240.641C161.339 244.192 156.523 246.188 151.5 246.188C146.477 246.188 141.661 244.192 138.109 240.641C134.558 237.089 132.563 232.273 132.562 227.25C132.562 222.227 134.558 217.411 138.109 213.859C141.661 210.308 146.477 208.312 151.5 208.312ZM151.5 132.562C156.523 132.563 161.339 134.558 164.891 138.109C168.442 141.661 170.437 146.477 170.438 151.5C170.437 156.523 168.442 161.339 164.891 164.891C161.339 168.442 156.523 170.437 151.5 170.438C146.477 170.437 141.661 168.442 138.109 164.891C134.558 161.339 132.563 156.523 132.562 151.5C132.562 146.477 134.558 141.661 138.109 138.109C141.661 134.558 146.477 132.563 151.5 132.562ZM151.5 56.8125C156.523 56.8125 161.339 58.8077 164.891 62.3592C168.442 65.9106 170.437 70.7275 170.438 75.75C170.437 80.7725 168.442 85.5894 164.891 89.1408C161.339 92.6923 156.523 94.6875 151.5 94.6875C146.477 94.6875 141.661 92.6923 138.109 89.1408C134.558 85.5894 132.563 80.7725 132.562 75.75C132.562 70.7275 134.558 65.9106 138.109 62.3592C141.661 58.8077 146.477 56.8125 151.5 56.8125Z" fill="white"/>
</svg>
