<svg width="375" height="375" viewBox="0 0 375 375" fill="none" xmlns="http://www.w3.org/2000/svg">
<g clip-path="url(#clip0_56_18)">
<path d="M250 27.3438V46.875H332.031C335.139 46.875 338.12 48.1096 340.318 50.3073C342.515 52.505 343.75 55.4857 343.75 58.5938C343.75 61.7018 342.515 64.6825 340.318 66.8802C338.12 69.0779 335.139 70.3125 332.031 70.3125H42.9688C39.8607 70.3125 36.88 69.0779 34.6823 66.8802C32.4846 64.6825 31.25 61.7018 31.25 58.5938C31.25 55.4857 32.4846 52.505 34.6823 50.3073C36.88 48.1096 39.8607 46.875 42.9688 46.875H125V27.3438C125 12.25 137.25 0 152.344 0H222.656C237.75 0 250 12.25 250 27.3438ZM148.438 27.3438V46.875H226.562V27.3438C226.562 26.3077 226.151 25.3142 225.418 24.5816C224.686 23.8491 223.692 23.4375 222.656 23.4375H152.344C151.308 23.4375 150.314 23.8491 149.582 24.5816C148.849 25.3142 148.438 26.3077 148.438 27.3438ZM78.0781 96.5312C77.9445 94.9885 77.5065 93.4874 76.7893 92.115C76.0721 90.7425 75.09 89.5257 73.8998 88.5351C72.7095 87.5444 71.3347 86.7995 69.8549 86.3434C68.375 85.8872 66.8194 85.7289 65.278 85.8776C63.7366 86.0263 62.2399 86.479 60.8745 87.2095C59.5091 87.9401 58.302 88.9341 57.3231 90.1339C56.3441 91.3338 55.6127 92.7158 55.171 94.2C54.7294 95.6843 54.5863 97.2414 54.75 98.7813L76.8125 326.875C77.4724 333.636 80.6251 339.909 85.6567 344.473C90.6882 349.036 97.2384 351.564 104.031 351.562H270.969C277.764 351.563 284.316 349.034 289.348 344.467C294.38 339.9 297.531 333.623 298.187 326.859L320.266 98.7813C320.564 95.6857 319.62 92.5984 317.643 90.1985C315.665 87.7986 312.814 86.2827 309.719 85.9844C306.623 85.686 303.536 86.6296 301.136 88.6075C298.736 90.5854 297.22 93.4357 296.922 96.5312L274.859 324.594C274.766 325.561 274.316 326.458 273.596 327.111C272.877 327.764 271.94 328.126 270.969 328.125H104.031C103.06 328.126 102.123 327.764 101.404 327.111C100.684 326.458 100.234 325.561 100.141 324.594L78.0781 96.5312Z" fill="white"/>
<path d="M143.844 117.204C145.381 117.113 146.921 117.326 148.375 117.83C149.83 118.335 151.171 119.121 152.322 120.144C153.472 121.167 154.41 122.407 155.082 123.792C155.753 125.178 156.145 126.682 156.234 128.219L164.047 261.032C164.229 264.138 163.17 267.189 161.103 269.514C159.036 271.839 156.129 273.248 153.023 273.43C149.917 273.613 146.866 272.554 144.541 270.486C142.216 268.419 140.807 265.513 140.625 262.407L132.812 129.594C132.722 128.057 132.934 126.518 133.439 125.063C133.943 123.608 134.73 122.267 135.753 121.116C136.776 119.966 138.015 119.028 139.401 118.357C140.787 117.685 142.291 117.293 143.828 117.204H143.844ZM242.172 129.594C242.354 126.488 241.295 123.437 239.228 121.112C237.161 118.787 234.254 117.378 231.148 117.196C228.042 117.014 224.991 118.073 222.666 120.14C220.341 122.207 218.932 125.113 218.75 128.219L210.937 261.032C210.755 264.136 211.813 267.185 213.879 269.509C215.945 271.832 218.849 273.24 221.953 273.423C225.057 273.605 228.106 272.547 230.43 270.481C232.753 268.415 234.161 265.511 234.344 262.407L242.172 129.594Z" fill="white"/>
</g>
<defs>
<clipPath id="clip0_56_18">
<rect width="375" height="375" fill="white"/>
</clipPath>
</defs>
</svg>
