<svg width="263" height="263" viewBox="0 0 263 263" fill="none" xmlns="http://www.w3.org/2000/svg">
<path fill-rule="evenodd" clip-rule="evenodd" d="M211.332 138.567C219.08 130.697 223.385 120.071 223.298 109.027C223.212 97.9828 218.742 87.4254 210.872 79.6771C206.975 75.8405 202.36 72.8091 197.292 70.7559C192.223 68.7027 186.8 67.6679 181.331 67.7107C170.287 67.797 159.73 72.267 151.982 80.1373C149.878 82.2413 147.204 84.8239 143.96 87.8849L134.941 96.3776L125.923 87.8849C122.672 84.8165 119.994 82.234 117.89 80.1373C110.081 72.328 99.4892 67.9408 88.4452 67.9408C77.4011 67.9408 66.8094 72.328 59.0001 80.1373C42.9133 96.2351 42.727 122.261 58.4084 138.436L134.941 214.969L211.332 138.567ZM49.6965 70.8447C54.7846 65.7553 60.8254 61.718 67.474 58.9636C74.1225 56.2092 81.2486 54.7915 88.4452 54.7915C95.6417 54.7915 102.768 56.2092 109.416 58.9636C116.065 61.718 122.106 65.7553 127.194 70.8447C129.188 72.8464 131.771 75.3376 134.941 78.3182C138.097 75.3376 140.68 72.8427 142.689 70.8337C152.886 60.4799 166.778 54.6009 181.31 54.4899C195.841 54.3789 209.821 60.0451 220.175 70.242C230.529 80.4388 236.408 94.3311 236.519 108.863C236.63 123.394 230.964 137.375 220.767 147.728L142.689 225.817C140.634 227.872 137.847 229.026 134.941 229.026C132.036 229.026 129.249 227.872 127.194 225.817L49.0938 147.717C39.0783 137.388 33.5276 123.534 33.6404 109.147C33.7531 94.7594 39.5203 80.9938 49.6965 70.8227V70.8447Z" fill="white"/>
</svg>
