<svg width="197" height="172" viewBox="0 0 197 172" fill="none" xmlns="http://www.w3.org/2000/svg">
<path d="M141.6 0C122.898 0 106.916 13.3311 98.136 22.5218C89.3557 13.3311 73.4102 0 54.7163 0C22.4951 0 0 22.4594 0 54.6092C0 90.0338 27.9382 112.93 54.9662 135.078C67.7261 145.544 80.9323 156.359 91.06 168.352C92.7643 170.359 95.2628 171.519 97.8862 171.519H98.4037C101.036 171.519 103.526 170.35 105.221 168.352C115.366 156.359 128.564 145.535 141.333 135.078C168.352 112.939 196.308 90.0428 196.308 54.6092C196.308 22.4594 173.813 0 141.6 0Z" fill="#EF5A7B"/>
</svg>
