<svg width="389" height="389" viewBox="0 0 389 389" fill="none" xmlns="http://www.w3.org/2000/svg">
<path d="M81.0417 307.958H104.139L262.575 149.522L239.478 126.425L81.0417 284.861V307.958ZM48.625 340.375V271.49L262.575 57.9448C265.817 54.9733 269.399 52.6771 273.321 51.0563C277.244 49.4354 281.36 48.625 285.672 48.625C289.983 48.625 294.17 49.4354 298.233 51.0563C302.296 52.6771 305.808 55.1083 308.769 58.35L331.055 81.0417C334.297 84.0132 336.663 87.525 338.154 91.5771C339.646 95.6292 340.386 99.6813 340.375 103.733C340.375 108.056 339.635 112.178 338.154 116.1C336.674 120.023 334.308 123.599 331.055 126.83L117.51 340.375H48.625ZM250.824 138.176L239.478 126.425L262.575 149.522L250.824 138.176Z" fill="white"/>
</svg>
