<svg width="16" height="16" viewBox="0 0 16 16" fill="none" xmlns="http://www.w3.org/2000/svg">
<g clip-path="url(#clip0_52_12)">
<path d="M5.21983 12.5496C6.07583 12.8396 7.00283 13.0006 7.99983 13.0006C11.4618 13.0006 14.0938 11.0456 15.8258 8.56763C15.9393 8.40032 16 8.2028 16 8.00063C16 7.79846 15.9393 7.60094 15.8258 7.43363C15.0858 6.37363 14.1798 5.40963 13.1158 4.65363L12.3908 5.37763C13.4198 6.07763 14.2918 6.99563 14.9948 8.00963C13.4378 10.2346 11.0598 12.0006 7.99983 12.0006C7.33308 12.002 6.66904 11.9156 6.02483 11.7436L5.21983 12.5496ZM6.95483 10.8136C7.49349 11.0141 8.0784 11.0556 8.63998 10.9333C9.20155 10.8109 9.71616 10.5298 10.1226 10.1234C10.529 9.71695 10.8101 9.20235 10.9325 8.64077C11.0548 8.0792 11.0133 7.49429 10.8128 6.95563L9.98783 7.78063C10.0208 8.07863 9.98642 8.38024 9.88713 8.66314C9.78783 8.94604 9.62621 9.20299 9.4142 9.415C9.2022 9.627 8.94524 9.78863 8.66234 9.88792C8.37944 9.98722 8.07783 10.0216 7.77983 9.98863L6.95483 10.8136ZM6.01183 8.22063L5.18683 9.04563C4.98636 8.50697 4.94483 7.92207 5.0672 7.36049C5.18958 6.79891 5.47069 6.28431 5.8771 5.8779C6.28351 5.47149 6.79812 5.19037 7.35969 5.068C7.92127 4.94563 8.50618 4.98715 9.04484 5.18763L8.21984 6.01263C7.92184 5.97963 7.62023 6.01405 7.33733 6.11334C7.05443 6.21263 6.79747 6.37426 6.58547 6.58626C6.37346 6.79827 6.21184 7.05523 6.11254 7.33813C6.01325 7.62103 5.97883 7.92263 6.01183 8.22063ZM9.97484 4.25763C9.33063 4.0857 8.66659 3.99929 7.99983 4.00063C4.93783 4.00063 2.55783 5.76963 1.00683 7.98763C1.70883 9.00363 2.58083 9.92263 3.60983 10.6236L2.88383 11.3486C1.81983 10.5906 0.913835 9.62863 0.172835 8.56863C0.0591468 8.39909 -0.00105565 8.19934 1.40105e-05 7.99521C0.00108367 7.79108 0.0633763 7.59197 0.178835 7.42363C1.90483 4.95563 4.53683 3.00063 7.99983 3.00063C8.94571 2.99728 9.88567 3.15 10.7818 3.45263L9.97484 4.25763ZM1.85383 14.8546C1.80735 14.9011 1.75216 14.938 1.69142 14.9632C1.63068 14.9883 1.56558 15.0013 1.49983 15.0013C1.43409 15.0013 1.36899 14.9883 1.30825 14.9632C1.24751 14.938 1.19232 14.9011 1.14583 14.8546C1.09935 14.8081 1.06247 14.753 1.03731 14.6922C1.01215 14.6315 0.999203 14.5664 0.999203 14.5006C0.999203 14.4349 1.01215 14.3698 1.03731 14.309C1.06247 14.2483 1.09935 14.1931 1.14583 14.1466L14.1458 1.14663C14.2397 1.05275 14.3671 1 14.4998 1C14.6326 1 14.7599 1.05275 14.8538 1.14663C14.9477 1.24052 15.0005 1.36786 15.0005 1.50063C15.0005 1.63341 14.9477 1.76074 14.8538 1.85463L1.85383 14.8546Z" fill="white"/>
</g>
<defs>
<clipPath id="clip0_52_12">
<rect width="16" height="16" fill="white"/>
</clipPath>
</defs>
</svg>
